<mxfile host="app.diagrams.net" modified="2022-07-04T10:44:30.856Z" agent="5.0 (Macintosh; Intel Mac OS X 10_15_7) AppleWebKit/537.36 (KHTML, like Gecko) Chrome/103.0.0.0 Safari/537.36" etag="wSWdyheLG1G-0BGqTXWP" version="20.0.4" type="github">
  <diagram id="2-hrm1N1ebwm_3weLaVp" name="Page-1">
    <mxGraphModel dx="1298" dy="834" grid="1" gridSize="10" guides="1" tooltips="1" connect="1" arrows="1" fold="1" page="1" pageScale="1" pageWidth="1169" pageHeight="1654" math="0" shadow="0">
      <root>
        <mxCell id="0" />
        <mxCell id="1" parent="0" />
        <mxCell id="FAEC4lMXxit8sSSjVPcY-95" value="" style="rounded=1;whiteSpace=wrap;html=1;fillColor=#E7F9E6;strokeColor=#FCFCFC;" vertex="1" parent="1">
          <mxGeometry x="420" y="310" width="450" height="210" as="geometry" />
        </mxCell>
        <mxCell id="XFXk-plWXWxICO0-8bLS-1" value="" style="rounded=0;whiteSpace=wrap;html=1;fillColor=#fff2cc;strokeColor=#d6b656;" parent="1" vertex="1">
          <mxGeometry x="107" y="130" width="313" height="81.25" as="geometry" />
        </mxCell>
        <mxCell id="FAEC4lMXxit8sSSjVPcY-64" style="edgeStyle=elbowEdgeStyle;rounded=1;jumpStyle=arc;orthogonalLoop=1;jettySize=auto;elbow=vertical;html=1;exitX=0.5;exitY=1;exitDx=0;exitDy=0;entryX=0.75;entryY=0;entryDx=0;entryDy=0;" edge="1" parent="1" source="XFXk-plWXWxICO0-8bLS-3" target="FAEC4lMXxit8sSSjVPcY-62">
          <mxGeometry relative="1" as="geometry" />
        </mxCell>
        <mxCell id="XFXk-plWXWxICO0-8bLS-3" value="" style="rounded=0;whiteSpace=wrap;html=1;fillColor=#fff2cc;strokeColor=#d6b656;" parent="1" vertex="1">
          <mxGeometry x="124.5" y="600" width="100" height="70" as="geometry" />
        </mxCell>
        <mxCell id="FAEC4lMXxit8sSSjVPcY-65" style="edgeStyle=elbowEdgeStyle;rounded=1;jumpStyle=arc;orthogonalLoop=1;jettySize=auto;elbow=vertical;html=1;exitX=0.75;exitY=0;exitDx=0;exitDy=0;entryX=0.5;entryY=1;entryDx=0;entryDy=0;entryPerimeter=0;" edge="1" parent="1" source="XFXk-plWXWxICO0-8bLS-4" target="XFXk-plWXWxICO0-8bLS-79">
          <mxGeometry relative="1" as="geometry" />
        </mxCell>
        <mxCell id="FAEC4lMXxit8sSSjVPcY-67" style="edgeStyle=elbowEdgeStyle;rounded=1;jumpStyle=arc;orthogonalLoop=1;jettySize=auto;elbow=vertical;html=1;exitX=1;exitY=0.5;exitDx=0;exitDy=0;entryX=0;entryY=0.5;entryDx=0;entryDy=0;" edge="1" parent="1" source="XFXk-plWXWxICO0-8bLS-4" target="XFXk-plWXWxICO0-8bLS-93">
          <mxGeometry relative="1" as="geometry" />
        </mxCell>
        <mxCell id="FAEC4lMXxit8sSSjVPcY-86" style="edgeStyle=elbowEdgeStyle;rounded=1;jumpStyle=arc;orthogonalLoop=1;jettySize=auto;elbow=vertical;html=1;exitX=0;exitY=0.5;exitDx=0;exitDy=0;entryX=0;entryY=0.5;entryDx=0;entryDy=0;" edge="1" parent="1" source="XFXk-plWXWxICO0-8bLS-4" target="XFXk-plWXWxICO0-8bLS-46">
          <mxGeometry relative="1" as="geometry">
            <Array as="points">
              <mxPoint x="110" y="560" />
            </Array>
          </mxGeometry>
        </mxCell>
        <mxCell id="XFXk-plWXWxICO0-8bLS-4" value="" style="rounded=0;whiteSpace=wrap;html=1;fillColor=#fff2cc;strokeColor=#d6b656;" parent="1" vertex="1">
          <mxGeometry x="120" y="711" width="190" height="70" as="geometry" />
        </mxCell>
        <mxCell id="FAEC4lMXxit8sSSjVPcY-77" style="edgeStyle=elbowEdgeStyle;rounded=1;jumpStyle=arc;orthogonalLoop=1;jettySize=auto;elbow=vertical;html=1;exitX=0.5;exitY=0;exitDx=0;exitDy=0;entryX=0.5;entryY=1;entryDx=0;entryDy=0;" edge="1" parent="1" source="XFXk-plWXWxICO0-8bLS-5" target="XFXk-plWXWxICO0-8bLS-63">
          <mxGeometry relative="1" as="geometry">
            <Array as="points">
              <mxPoint x="560" y="650" />
            </Array>
          </mxGeometry>
        </mxCell>
        <mxCell id="FAEC4lMXxit8sSSjVPcY-83" style="edgeStyle=elbowEdgeStyle;rounded=1;jumpStyle=arc;orthogonalLoop=1;jettySize=auto;elbow=vertical;html=1;exitX=1;exitY=0.5;exitDx=0;exitDy=0;entryX=0;entryY=0.25;entryDx=0;entryDy=0;" edge="1" parent="1" source="XFXk-plWXWxICO0-8bLS-5" target="XFXk-plWXWxICO0-8bLS-16">
          <mxGeometry relative="1" as="geometry" />
        </mxCell>
        <mxCell id="XFXk-plWXWxICO0-8bLS-5" value="" style="rounded=0;whiteSpace=wrap;html=1;fillColor=#fff2cc;strokeColor=#d6b656;" parent="1" vertex="1">
          <mxGeometry x="391" y="680" width="222.75" height="110.99" as="geometry" />
        </mxCell>
        <mxCell id="XFXk-plWXWxICO0-8bLS-126" style="edgeStyle=elbowEdgeStyle;rounded=1;orthogonalLoop=1;jettySize=auto;html=1;exitX=0;exitY=0.25;exitDx=0;exitDy=0;entryX=0.5;entryY=1;entryDx=0;entryDy=0;entryPerimeter=0;" parent="1" source="XFXk-plWXWxICO0-8bLS-6" target="XFXk-plWXWxICO0-8bLS-104" edge="1">
          <mxGeometry relative="1" as="geometry">
            <Array as="points">
              <mxPoint x="470" y="480" />
              <mxPoint x="500" y="480" />
            </Array>
          </mxGeometry>
        </mxCell>
        <mxCell id="FAEC4lMXxit8sSSjVPcY-42" style="edgeStyle=orthogonalEdgeStyle;rounded=1;orthogonalLoop=1;jettySize=auto;html=1;exitX=0.5;exitY=0;exitDx=0;exitDy=0;entryX=0.5;entryY=1;entryDx=0;entryDy=0;entryPerimeter=0;" edge="1" parent="1" source="XFXk-plWXWxICO0-8bLS-6" target="XFXk-plWXWxICO0-8bLS-107">
          <mxGeometry relative="1" as="geometry">
            <mxPoint x="646.25" y="520" as="targetPoint" />
          </mxGeometry>
        </mxCell>
        <mxCell id="XFXk-plWXWxICO0-8bLS-6" value="" style="rounded=0;whiteSpace=wrap;html=1;fillColor=#fff2cc;strokeColor=#d6b656;" parent="1" vertex="1">
          <mxGeometry x="558.75" y="540" width="176.25" height="70" as="geometry" />
        </mxCell>
        <mxCell id="XFXk-plWXWxICO0-8bLS-97" style="edgeStyle=orthogonalEdgeStyle;rounded=1;orthogonalLoop=1;jettySize=auto;html=1;exitX=1;exitY=0.5;exitDx=0;exitDy=0;entryX=0.5;entryY=1;entryDx=0;entryDy=0;entryPerimeter=0;" parent="1" source="XFXk-plWXWxICO0-8bLS-7" target="XFXk-plWXWxICO0-8bLS-96" edge="1">
          <mxGeometry relative="1" as="geometry" />
        </mxCell>
        <mxCell id="XFXk-plWXWxICO0-8bLS-124" style="edgeStyle=elbowEdgeStyle;rounded=1;orthogonalLoop=1;jettySize=auto;html=1;exitX=0.25;exitY=0;exitDx=0;exitDy=0;entryX=0.5;entryY=0;entryDx=0;entryDy=0;" parent="1" source="XFXk-plWXWxICO0-8bLS-7" target="XFXk-plWXWxICO0-8bLS-63" edge="1">
          <mxGeometry relative="1" as="geometry">
            <Array as="points">
              <mxPoint x="756" y="690" />
              <mxPoint x="730" y="690" />
            </Array>
          </mxGeometry>
        </mxCell>
        <mxCell id="XFXk-plWXWxICO0-8bLS-131" style="edgeStyle=elbowEdgeStyle;rounded=1;orthogonalLoop=1;jettySize=auto;html=1;exitX=0.5;exitY=0;exitDx=0;exitDy=0;entryX=0.5;entryY=1;entryDx=0;entryDy=0;entryPerimeter=0;" parent="1" source="XFXk-plWXWxICO0-8bLS-7" target="XFXk-plWXWxICO0-8bLS-129" edge="1">
          <mxGeometry relative="1" as="geometry" />
        </mxCell>
        <mxCell id="XFXk-plWXWxICO0-8bLS-7" value="" style="rounded=0;whiteSpace=wrap;html=1;fillColor=#fff2cc;strokeColor=#d6b656;" parent="1" vertex="1">
          <mxGeometry x="712.5" y="710" width="175" height="60" as="geometry" />
        </mxCell>
        <mxCell id="XFXk-plWXWxICO0-8bLS-81" style="edgeStyle=orthogonalEdgeStyle;rounded=0;orthogonalLoop=1;jettySize=auto;html=1;exitX=1;exitY=0.5;exitDx=0;exitDy=0;entryX=0;entryY=0.5;entryDx=0;entryDy=0;" parent="1" source="XFXk-plWXWxICO0-8bLS-16" target="XFXk-plWXWxICO0-8bLS-7" edge="1">
          <mxGeometry relative="1" as="geometry" />
        </mxCell>
        <mxCell id="XFXk-plWXWxICO0-8bLS-16" value="" style="shape=process;whiteSpace=wrap;html=1;backgroundOutline=1;" parent="1" vertex="1">
          <mxGeometry x="642" y="728.48" width="40" height="22.51" as="geometry" />
        </mxCell>
        <mxCell id="XFXk-plWXWxICO0-8bLS-37" value="supplier-service&lt;br&gt;动态信息查询" style="rounded=0;whiteSpace=wrap;html=1;fillColor=#f8cecc;strokeColor=#b85450;" parent="1" vertex="1">
          <mxGeometry x="880" y="340" width="120" height="60" as="geometry" />
        </mxCell>
        <mxCell id="XFXk-plWXWxICO0-8bLS-46" value="supplier-service&lt;br&gt;" style="rounded=0;whiteSpace=wrap;html=1;fillColor=#f8cecc;strokeColor=#b85450;" parent="1" vertex="1">
          <mxGeometry x="124.5" y="510" width="120.5" height="60" as="geometry" />
        </mxCell>
        <mxCell id="FAEC4lMXxit8sSSjVPcY-78" style="edgeStyle=elbowEdgeStyle;rounded=1;jumpStyle=arc;orthogonalLoop=1;jettySize=auto;elbow=vertical;html=1;exitX=0;exitY=0.5;exitDx=0;exitDy=0;entryX=0.5;entryY=1;entryDx=0;entryDy=0;" edge="1" parent="1" source="XFXk-plWXWxICO0-8bLS-63" target="XFXk-plWXWxICO0-8bLS-6">
          <mxGeometry relative="1" as="geometry" />
        </mxCell>
        <mxCell id="XFXk-plWXWxICO0-8bLS-63" value="" style="shape=process;whiteSpace=wrap;html=1;backgroundOutline=1;rotation=90;" parent="1" vertex="1">
          <mxGeometry x="631.87" y="625" width="30" height="49.99" as="geometry" />
        </mxCell>
        <mxCell id="XFXk-plWXWxICO0-8bLS-79" value="hbase" style="shape=cylinder3;whiteSpace=wrap;html=1;boundedLbl=1;backgroundOutline=1;size=15;fillColor=#d5e8d4;strokeColor=#82b366;" parent="1" vertex="1">
          <mxGeometry x="250" y="595" width="60" height="70" as="geometry" />
        </mxCell>
        <mxCell id="XFXk-plWXWxICO0-8bLS-96" value="s3" style="shape=cylinder3;whiteSpace=wrap;html=1;boundedLbl=1;backgroundOutline=1;size=15;fillColor=#d5e8d4;strokeColor=#82b366;" parent="1" vertex="1">
          <mxGeometry x="930" y="620" width="60" height="70" as="geometry" />
        </mxCell>
        <mxCell id="XFXk-plWXWxICO0-8bLS-104" value="ES" style="shape=cylinder3;whiteSpace=wrap;html=1;boundedLbl=1;backgroundOutline=1;size=15;fillColor=#d5e8d4;strokeColor=#82b366;" parent="1" vertex="1">
          <mxGeometry x="440" y="345" width="60" height="70" as="geometry" />
        </mxCell>
        <mxCell id="FAEC4lMXxit8sSSjVPcY-43" style="edgeStyle=orthogonalEdgeStyle;rounded=1;orthogonalLoop=1;jettySize=auto;html=1;exitX=0.5;exitY=0;exitDx=0;exitDy=0;exitPerimeter=0;entryX=0.5;entryY=1;entryDx=0;entryDy=0;entryPerimeter=0;" edge="1" parent="1" source="XFXk-plWXWxICO0-8bLS-107" target="XFXk-plWXWxICO0-8bLS-109">
          <mxGeometry relative="1" as="geometry" />
        </mxCell>
        <mxCell id="XFXk-plWXWxICO0-8bLS-107" value="DB" style="shape=cylinder3;whiteSpace=wrap;html=1;boundedLbl=1;backgroundOutline=1;size=15;fillColor=#d5e8d4;strokeColor=#82b366;" parent="1" vertex="1">
          <mxGeometry x="616.25" y="430" width="60" height="60" as="geometry" />
        </mxCell>
        <mxCell id="FAEC4lMXxit8sSSjVPcY-92" style="edgeStyle=elbowEdgeStyle;rounded=1;jumpStyle=arc;orthogonalLoop=1;jettySize=auto;elbow=vertical;html=1;exitX=0.25;exitY=0;exitDx=0;exitDy=0;entryX=0;entryY=0.5;entryDx=0;entryDy=0;entryPerimeter=0;" edge="1" parent="1" source="FAEC4lMXxit8sSSjVPcY-87" target="XFXk-plWXWxICO0-8bLS-109">
          <mxGeometry relative="1" as="geometry">
            <Array as="points">
              <mxPoint x="598" y="380" />
            </Array>
          </mxGeometry>
        </mxCell>
        <mxCell id="XFXk-plWXWxICO0-8bLS-109" value="Redis" style="shape=cylinder3;whiteSpace=wrap;html=1;boundedLbl=1;backgroundOutline=1;size=15;fillColor=#d5e8d4;strokeColor=#82b366;" parent="1" vertex="1">
          <mxGeometry x="613.75" y="345" width="60" height="60" as="geometry" />
        </mxCell>
        <mxCell id="XFXk-plWXWxICO0-8bLS-129" value="CDN files" style="shape=cylinder3;whiteSpace=wrap;html=1;boundedLbl=1;backgroundOutline=1;size=15;fillColor=#d5e8d4;strokeColor=#82b366;" parent="1" vertex="1">
          <mxGeometry x="770" y="335" width="60" height="70" as="geometry" />
        </mxCell>
        <mxCell id="XFXk-plWXWxICO0-8bLS-132" value="RawMQ" style="text;html=1;align=center;verticalAlign=middle;resizable=0;points=[];autosize=1;strokeColor=none;fillColor=none;" parent="1" vertex="1">
          <mxGeometry x="314.5" y="698.73" width="70" height="30" as="geometry" />
        </mxCell>
        <mxCell id="XFXk-plWXWxICO0-8bLS-133" value="PictureMQ" style="text;html=1;align=center;verticalAlign=middle;resizable=0;points=[];autosize=1;strokeColor=none;fillColor=none;" parent="1" vertex="1">
          <mxGeometry x="620" y="690" width="80" height="30" as="geometry" />
        </mxCell>
        <mxCell id="XFXk-plWXWxICO0-8bLS-134" value="ProcessedMQ" style="text;html=1;align=center;verticalAlign=middle;resizable=0;points=[];autosize=1;strokeColor=none;fillColor=none;" parent="1" vertex="1">
          <mxGeometry x="535" y="610" width="100" height="30" as="geometry" />
        </mxCell>
        <mxCell id="FAEC4lMXxit8sSSjVPcY-19" style="edgeStyle=orthogonalEdgeStyle;rounded=1;orthogonalLoop=1;jettySize=auto;html=1;exitX=0.5;exitY=1;exitDx=0;exitDy=0;entryX=0.145;entryY=0;entryDx=0;entryDy=4.35;entryPerimeter=0;" edge="1" parent="1" source="FAEC4lMXxit8sSSjVPcY-2" target="XFXk-plWXWxICO0-8bLS-104">
          <mxGeometry relative="1" as="geometry" />
        </mxCell>
        <mxCell id="FAEC4lMXxit8sSSjVPcY-2" value="current_city&lt;br&gt;匹配" style="rounded=1;whiteSpace=wrap;html=1;" vertex="1" parent="1">
          <mxGeometry x="124.5" y="153.75" width="80" height="47.5" as="geometry" />
        </mxCell>
        <mxCell id="FAEC4lMXxit8sSSjVPcY-22" style="edgeStyle=orthogonalEdgeStyle;rounded=1;orthogonalLoop=1;jettySize=auto;html=1;exitX=0.5;exitY=1;exitDx=0;exitDy=0;entryX=0.855;entryY=0;entryDx=0;entryDy=4.35;entryPerimeter=0;" edge="1" parent="1" source="FAEC4lMXxit8sSSjVPcY-4" target="XFXk-plWXWxICO0-8bLS-104">
          <mxGeometry relative="1" as="geometry">
            <Array as="points">
              <mxPoint x="350" y="240" />
              <mxPoint x="491" y="240" />
            </Array>
          </mxGeometry>
        </mxCell>
        <mxCell id="FAEC4lMXxit8sSSjVPcY-25" style="edgeStyle=orthogonalEdgeStyle;rounded=1;orthogonalLoop=1;jettySize=auto;html=1;exitX=0.5;exitY=1;exitDx=0;exitDy=0;entryX=0.5;entryY=0;entryDx=0;entryDy=0;jumpStyle=arc;" edge="1" parent="1" source="FAEC4lMXxit8sSSjVPcY-4" target="FAEC4lMXxit8sSSjVPcY-15">
          <mxGeometry relative="1" as="geometry">
            <Array as="points">
              <mxPoint x="350" y="240" />
              <mxPoint x="190" y="240" />
            </Array>
          </mxGeometry>
        </mxCell>
        <mxCell id="FAEC4lMXxit8sSSjVPcY-48" style="edgeStyle=elbowEdgeStyle;rounded=1;jumpStyle=arc;orthogonalLoop=1;jettySize=auto;elbow=vertical;html=1;exitX=0.5;exitY=1;exitDx=0;exitDy=0;entryX=0.5;entryY=0;entryDx=0;entryDy=0;" edge="1" parent="1" source="FAEC4lMXxit8sSSjVPcY-4" target="FAEC4lMXxit8sSSjVPcY-16">
          <mxGeometry relative="1" as="geometry" />
        </mxCell>
        <mxCell id="FAEC4lMXxit8sSSjVPcY-4" value="search&lt;br&gt;酒店搜索" style="rounded=1;whiteSpace=wrap;html=1;" vertex="1" parent="1">
          <mxGeometry x="304.5" y="153.75" width="90" height="47.5" as="geometry" />
        </mxCell>
        <mxCell id="FAEC4lMXxit8sSSjVPcY-21" style="edgeStyle=orthogonalEdgeStyle;rounded=1;orthogonalLoop=1;jettySize=auto;html=1;exitX=0.5;exitY=1;exitDx=0;exitDy=0;entryX=0.5;entryY=0;entryDx=0;entryDy=0;entryPerimeter=0;jumpStyle=arc;" edge="1" parent="1" source="FAEC4lMXxit8sSSjVPcY-5" target="XFXk-plWXWxICO0-8bLS-104">
          <mxGeometry relative="1" as="geometry">
            <Array as="points">
              <mxPoint x="255" y="260" />
              <mxPoint x="470" y="260" />
            </Array>
          </mxGeometry>
        </mxCell>
        <mxCell id="FAEC4lMXxit8sSSjVPcY-5" value="keywords&lt;br&gt;目的地推荐" style="rounded=1;whiteSpace=wrap;html=1;" vertex="1" parent="1">
          <mxGeometry x="214.5" y="153.75" width="80" height="47.5" as="geometry" />
        </mxCell>
        <mxCell id="FAEC4lMXxit8sSSjVPcY-6" value="" style="rounded=0;whiteSpace=wrap;html=1;fillColor=#fff2cc;strokeColor=#d6b656;" vertex="1" parent="1">
          <mxGeometry x="450" y="130" width="550" height="80" as="geometry" />
        </mxCell>
        <mxCell id="FAEC4lMXxit8sSSjVPcY-47" style="edgeStyle=elbowEdgeStyle;rounded=1;jumpStyle=arc;orthogonalLoop=1;jettySize=auto;elbow=vertical;html=1;exitX=0.5;exitY=1;exitDx=0;exitDy=0;entryX=0.145;entryY=0;entryDx=0;entryDy=4.35;entryPerimeter=0;" edge="1" parent="1" source="FAEC4lMXxit8sSSjVPcY-7" target="XFXk-plWXWxICO0-8bLS-109">
          <mxGeometry relative="1" as="geometry">
            <Array as="points">
              <mxPoint x="640" y="280" />
              <mxPoint x="560" y="280" />
            </Array>
          </mxGeometry>
        </mxCell>
        <mxCell id="FAEC4lMXxit8sSSjVPcY-7" value="details&lt;br&gt;详情" style="rounded=1;whiteSpace=wrap;html=1;" vertex="1" parent="1">
          <mxGeometry x="467.5" y="153.75" width="80" height="47.5" as="geometry" />
        </mxCell>
        <mxCell id="FAEC4lMXxit8sSSjVPcY-26" style="edgeStyle=orthogonalEdgeStyle;rounded=1;orthogonalLoop=1;jettySize=auto;html=1;exitX=0.5;exitY=1;exitDx=0;exitDy=0;entryX=0.75;entryY=0;entryDx=0;entryDy=0;" edge="1" parent="1" source="FAEC4lMXxit8sSSjVPcY-8" target="XFXk-plWXWxICO0-8bLS-37">
          <mxGeometry relative="1" as="geometry">
            <Array as="points">
              <mxPoint x="693" y="260" />
              <mxPoint x="960" y="260" />
            </Array>
          </mxGeometry>
        </mxCell>
        <mxCell id="FAEC4lMXxit8sSSjVPcY-8" value="Precheck&lt;br&gt;酒店搜索" style="rounded=1;whiteSpace=wrap;html=1;" vertex="1" parent="1">
          <mxGeometry x="642" y="152.75" width="90" height="47.5" as="geometry" />
        </mxCell>
        <mxCell id="FAEC4lMXxit8sSSjVPcY-24" style="edgeStyle=orthogonalEdgeStyle;rounded=1;orthogonalLoop=1;jettySize=auto;html=1;exitX=0.5;exitY=1;exitDx=0;exitDy=0;entryX=0.5;entryY=0;entryDx=0;entryDy=0;" edge="1" parent="1" source="FAEC4lMXxit8sSSjVPcY-9" target="XFXk-plWXWxICO0-8bLS-37">
          <mxGeometry relative="1" as="geometry" />
        </mxCell>
        <mxCell id="FAEC4lMXxit8sSSjVPcY-9" value="extraInfo&lt;br&gt;房型详情" style="rounded=1;whiteSpace=wrap;html=1;" vertex="1" parent="1">
          <mxGeometry x="557" y="152.75" width="80" height="47.5" as="geometry" />
        </mxCell>
        <mxCell id="FAEC4lMXxit8sSSjVPcY-27" style="edgeStyle=orthogonalEdgeStyle;orthogonalLoop=1;jettySize=auto;html=1;exitX=0.5;exitY=1;exitDx=0;exitDy=0;entryX=0.855;entryY=0;entryDx=0;entryDy=4.35;entryPerimeter=0;jumpStyle=arc;rounded=1;" edge="1" parent="1" source="FAEC4lMXxit8sSSjVPcY-10" target="XFXk-plWXWxICO0-8bLS-109">
          <mxGeometry relative="1" as="geometry">
            <Array as="points">
              <mxPoint x="790" y="280" />
              <mxPoint x="636" y="280" />
            </Array>
          </mxGeometry>
        </mxCell>
        <mxCell id="FAEC4lMXxit8sSSjVPcY-10" value="FullfillmentInfo&lt;br&gt;发货信息" style="rounded=1;whiteSpace=wrap;html=1;" vertex="1" parent="1">
          <mxGeometry x="740" y="152.75" width="81" height="47.25" as="geometry" />
        </mxCell>
        <mxCell id="FAEC4lMXxit8sSSjVPcY-28" style="edgeStyle=elbowEdgeStyle;rounded=1;orthogonalLoop=1;jettySize=auto;html=1;exitX=0.5;exitY=1;exitDx=0;exitDy=0;entryX=1;entryY=0.5;entryDx=0;entryDy=0;entryPerimeter=0;elbow=vertical;jumpStyle=arc;" edge="1" parent="1" source="FAEC4lMXxit8sSSjVPcY-13" target="XFXk-plWXWxICO0-8bLS-107">
          <mxGeometry relative="1" as="geometry">
            <Array as="points">
              <mxPoint x="810" y="460" />
            </Array>
          </mxGeometry>
        </mxCell>
        <mxCell id="FAEC4lMXxit8sSSjVPcY-13" value="reviews" style="rounded=1;whiteSpace=wrap;html=1;" vertex="1" parent="1">
          <mxGeometry x="831" y="152.75" width="70" height="47.25" as="geometry" />
        </mxCell>
        <mxCell id="FAEC4lMXxit8sSSjVPcY-30" style="edgeStyle=orthogonalEdgeStyle;rounded=1;orthogonalLoop=1;jettySize=auto;html=1;exitX=1;exitY=0.5;exitDx=0;exitDy=0;entryX=1;entryY=1;entryDx=0;entryDy=-15;entryPerimeter=0;jumpStyle=arc;" edge="1" parent="1" source="FAEC4lMXxit8sSSjVPcY-14" target="XFXk-plWXWxICO0-8bLS-107">
          <mxGeometry relative="1" as="geometry" />
        </mxCell>
        <mxCell id="FAEC4lMXxit8sSSjVPcY-14" value="Gallery" style="rounded=1;whiteSpace=wrap;html=1;" vertex="1" parent="1">
          <mxGeometry x="920" y="153.75" width="70" height="46.25" as="geometry" />
        </mxCell>
        <mxCell id="FAEC4lMXxit8sSSjVPcY-15" value="supplier-service&lt;br&gt;动态信息查询" style="rounded=0;whiteSpace=wrap;html=1;fillColor=#f8cecc;strokeColor=#b85450;" vertex="1" parent="1">
          <mxGeometry x="130" y="340" width="120" height="60" as="geometry" />
        </mxCell>
        <mxCell id="FAEC4lMXxit8sSSjVPcY-16" value="" style="rounded=0;whiteSpace=wrap;html=1;fillColor=#fff2cc;strokeColor=#d6b656;" vertex="1" parent="1">
          <mxGeometry x="289.5" y="340" width="120" height="60" as="geometry" />
        </mxCell>
        <mxCell id="FAEC4lMXxit8sSSjVPcY-34" value="listing-server" style="text;html=1;strokeColor=none;fillColor=none;align=center;verticalAlign=middle;whiteSpace=wrap;rounded=0;" vertex="1" parent="1">
          <mxGeometry x="110" y="130" width="100" height="20" as="geometry" />
        </mxCell>
        <mxCell id="FAEC4lMXxit8sSSjVPcY-36" value="item-server" style="text;html=1;strokeColor=none;fillColor=none;align=center;verticalAlign=middle;whiteSpace=wrap;rounded=0;" vertex="1" parent="1">
          <mxGeometry x="455" y="130" width="100" height="20" as="geometry" />
        </mxCell>
        <mxCell id="FAEC4lMXxit8sSSjVPcY-50" value="元数据映射" style="rounded=1;whiteSpace=wrap;html=1;" vertex="1" parent="1">
          <mxGeometry x="317" y="360" width="65" height="30" as="geometry" />
        </mxCell>
        <mxCell id="FAEC4lMXxit8sSSjVPcY-52" value="metadata-server" style="text;html=1;strokeColor=none;fillColor=none;align=center;verticalAlign=middle;whiteSpace=wrap;rounded=0;" vertex="1" parent="1">
          <mxGeometry x="294.5" y="340" width="105" height="20" as="geometry" />
        </mxCell>
        <mxCell id="FAEC4lMXxit8sSSjVPcY-54" value="cron定时任务管理" style="rounded=1;whiteSpace=wrap;html=1;" vertex="1" parent="1">
          <mxGeometry x="139.5" y="625" width="70" height="40" as="geometry" />
        </mxCell>
        <mxCell id="FAEC4lMXxit8sSSjVPcY-55" value="listing-cron" style="text;html=1;strokeColor=none;fillColor=none;align=center;verticalAlign=middle;whiteSpace=wrap;rounded=0;" vertex="1" parent="1">
          <mxGeometry x="129.5" y="598.5" width="90" height="23" as="geometry" />
        </mxCell>
        <mxCell id="FAEC4lMXxit8sSSjVPcY-57" value="供应商数据下载" style="rounded=1;whiteSpace=wrap;html=1;" vertex="1" parent="1">
          <mxGeometry x="130" y="741" width="95" height="30" as="geometry" />
        </mxCell>
        <mxCell id="FAEC4lMXxit8sSSjVPcY-59" value="适配adaptor" style="rounded=1;whiteSpace=wrap;html=1;" vertex="1" parent="1">
          <mxGeometry x="229.5" y="741" width="75" height="30" as="geometry" />
        </mxCell>
        <mxCell id="FAEC4lMXxit8sSSjVPcY-62" value="itemfetch-server" style="text;html=1;strokeColor=none;fillColor=none;align=center;verticalAlign=middle;whiteSpace=wrap;rounded=0;" vertex="1" parent="1">
          <mxGeometry x="132.5" y="710" width="90" height="31" as="geometry" />
        </mxCell>
        <mxCell id="FAEC4lMXxit8sSSjVPcY-75" style="edgeStyle=elbowEdgeStyle;rounded=1;jumpStyle=arc;orthogonalLoop=1;jettySize=auto;elbow=vertical;html=1;exitX=1;exitY=0.5;exitDx=0;exitDy=0;entryX=-0.004;entryY=0.595;entryDx=0;entryDy=0;entryPerimeter=0;" edge="1" parent="1" source="XFXk-plWXWxICO0-8bLS-93" target="XFXk-plWXWxICO0-8bLS-5">
          <mxGeometry relative="1" as="geometry" />
        </mxCell>
        <mxCell id="XFXk-plWXWxICO0-8bLS-93" value="" style="shape=process;whiteSpace=wrap;html=1;backgroundOutline=1;fillColor=#f5f5f5;fontColor=#333333;strokeColor=#666666;" parent="1" vertex="1">
          <mxGeometry x="329.5" y="734.74" width="40" height="22.51" as="geometry" />
        </mxCell>
        <mxCell id="FAEC4lMXxit8sSSjVPcY-68" value="Hotel mapping" style="rounded=1;whiteSpace=wrap;html=1;" vertex="1" parent="1">
          <mxGeometry x="401.5" y="750.99" width="102.25" height="32.26" as="geometry" />
        </mxCell>
        <mxCell id="FAEC4lMXxit8sSSjVPcY-69" value="Room Mapping" style="rounded=1;whiteSpace=wrap;html=1;" vertex="1" parent="1">
          <mxGeometry x="511.25" y="750.99" width="90" height="32.26" as="geometry" />
        </mxCell>
        <mxCell id="FAEC4lMXxit8sSSjVPcY-71" value="area mapping" style="rounded=1;whiteSpace=wrap;html=1;" vertex="1" parent="1">
          <mxGeometry x="401.5" y="710.99" width="102.25" height="32.25" as="geometry" />
        </mxCell>
        <mxCell id="FAEC4lMXxit8sSSjVPcY-72" value="meta mapping" style="rounded=1;whiteSpace=wrap;html=1;" vertex="1" parent="1">
          <mxGeometry x="508.75" y="711.97" width="95" height="29.02" as="geometry" />
        </mxCell>
        <mxCell id="FAEC4lMXxit8sSSjVPcY-74" value="realtime-computing-server" style="text;html=1;strokeColor=none;fillColor=none;align=center;verticalAlign=middle;whiteSpace=wrap;rounded=0;" vertex="1" parent="1">
          <mxGeometry x="400.25" y="685.99" width="151" height="18" as="geometry" />
        </mxCell>
        <mxCell id="FAEC4lMXxit8sSSjVPcY-84" value="图片下载、裁剪、上传" style="rounded=1;whiteSpace=wrap;html=1;" vertex="1" parent="1">
          <mxGeometry x="729.75" y="734.74" width="140.5" height="30" as="geometry" />
        </mxCell>
        <mxCell id="FAEC4lMXxit8sSSjVPcY-85" value="&lt;meta charset=&quot;utf-8&quot;&gt;&lt;span style=&quot;color: rgb(0, 0, 0); font-family: Helvetica; font-size: 12px; font-style: normal; font-variant-ligatures: normal; font-variant-caps: normal; font-weight: 400; letter-spacing: normal; orphans: 2; text-align: center; text-indent: 0px; text-transform: none; widows: 2; word-spacing: 0px; -webkit-text-stroke-width: 0px; background-color: rgb(248, 249, 250); text-decoration-thickness: initial; text-decoration-style: initial; text-decoration-color: initial; float: none; display: inline !important;&quot;&gt;imageprocessing-server&lt;/span&gt;" style="text;whiteSpace=wrap;html=1;" vertex="1" parent="1">
          <mxGeometry x="720" y="710" width="160" height="40" as="geometry" />
        </mxCell>
        <mxCell id="FAEC4lMXxit8sSSjVPcY-87" value="&lt;meta charset=&quot;utf-8&quot;&gt;&lt;span style=&quot;color: rgb(0, 0, 0); font-family: Helvetica; font-size: 12px; font-style: normal; font-variant-ligatures: normal; font-variant-caps: normal; font-weight: 400; letter-spacing: normal; orphans: 2; text-align: center; text-indent: 0px; text-transform: none; widows: 2; word-spacing: 0px; -webkit-text-stroke-width: 0px; background-color: rgb(248, 249, 250); text-decoration-thickness: initial; text-decoration-style: initial; text-decoration-color: initial; float: none; display: inline !important;&quot;&gt;onelinedatasync-server&lt;/span&gt;" style="text;whiteSpace=wrap;html=1;" vertex="1" parent="1">
          <mxGeometry x="563.75" y="540" width="136.25" height="33" as="geometry" />
        </mxCell>
        <mxCell id="FAEC4lMXxit8sSSjVPcY-89" value="数据消费，同步" style="rounded=1;whiteSpace=wrap;html=1;" vertex="1" parent="1">
          <mxGeometry x="593.75" y="570" width="106.25" height="30" as="geometry" />
        </mxCell>
      </root>
    </mxGraphModel>
  </diagram>
</mxfile>
